<svg id="HRMIS3" xmlns="http://www.w3.org/2000/svg" xmlns:xlink="http://www.w3.org/1999/xlink" viewBox="0 0 391.53 310.58"><defs><style>.cls-1{fill:#0b1333;}.cls-2{fill:#fff4ee;stroke-width:3px;stroke:url(#Orange_Yellow);}.cls-2,.cls-4,.cls-5,.cls-6,.cls-7{stroke-miterlimit:10;}.cls-3{fill:#0e1033;}.cls-4{fill:#112549;stroke:#231f20;}.cls-4,.cls-5{stroke-width:2px;}.cls-5,.cls-7{fill:none;}.cls-5{stroke:url(#Orange_Yellow-2);}.cls-6{fill:#caebfc;}.cls-6,.cls-7{stroke:#262262;stroke-width:0.5px;}</style><linearGradient id="Orange_Yellow" x1="34.55" y1="137.68" x2="357.24" y2="137.68" gradientUnits="userSpaceOnUse"><stop offset="0" stop-color="#fff33b"/><stop offset="0.04" stop-color="#fee72e"/><stop offset="0.12" stop-color="#fed51b"/><stop offset="0.2" stop-color="#fdca10"/><stop offset="0.28" stop-color="#fdc70c"/><stop offset="0.67" stop-color="#f3903f"/><stop offset="0.89" stop-color="#ed683c"/><stop offset="1" stop-color="#e93e3a"/></linearGradient><linearGradient id="Orange_Yellow-2" x1="135.53" y1="137.68" x2="256.26" y2="137.68" xlink:href="#Orange_Yellow"/></defs><rect class="cls-1" x="0.26" width="391.26" height="275.37" rx="11.72"/><rect class="cls-1" y="295.72" width="391.26" height="14.86"/><rect class="cls-1" x="144.72" y="277.98" width="101.82" height="14.86"/><rect class="cls-2" x="36.05" y="25.19" width="319.69" height="225" rx="13.23"/><path class="cls-3" d="M214.21,283.55A1.63,1.63,0,0,0,215,282c-.11-1.69-.16-3.39-.16-5.1A83.14,83.14,0,0,1,217,258.07a1.61,1.61,0,0,0-.54-1.62l-19.6-16a1.63,1.63,0,0,1-.49-1.84c.94-2.49,2-4.94,3.09-7.34a1.63,1.63,0,0,1,1.66-.93l25.14,2.82a1.62,1.62,0,0,0,1.54-.74,83.18,83.18,0,0,1,15.72-18.2,1.61,1.61,0,0,0,.51-1.63l-6.45-24.46a1.62,1.62,0,0,1,.67-1.77q3.33-2.19,6.82-4.14a1.63,1.63,0,0,1,1.89.22l18.67,17.05a1.61,1.61,0,0,0,1.68.3,82.65,82.65,0,0,1,23.42-5.48,1.6,1.6,0,0,0,1.38-1l9.15-23.55a1.62,1.62,0,0,1,1.58-1c2.68.12,5.34.34,8,.66a1.61,1.61,0,0,1,1.4,1.29l5.08,24.75a1.63,1.63,0,0,0,1.18,1.23A82.48,82.48,0,0,1,340.66,206a1.62,1.62,0,0,0,1.71,0l21.25-13.68a1.61,1.61,0,0,1,1.89.09q3.12,2.5,6.05,5.22a1.63,1.63,0,0,1,.36,1.87l-10.44,23a1.61,1.61,0,0,0,.24,1.69,83.23,83.23,0,0,1,12.47,20.57,1.62,1.62,0,0,0,1.39,1l25.25,1.42a1.65,1.65,0,0,1,1.48,1.19c.69,2.55,1.3,5.14,1.81,7.77a1.64,1.64,0,0,1-.8,1.72l-22,12.49a1.61,1.61,0,0,0-.81,1.51c.1,1.69.16,3.39.16,5.11a83.27,83.27,0,0,1-2.16,18.87,1.59,1.59,0,0,0,.54,1.61l19.59,16a1.62,1.62,0,0,1,.5,1.83c-.94,2.49-2,4.94-3.09,7.35a1.63,1.63,0,0,1-1.66.92l-25.14-2.82a1.65,1.65,0,0,0-1.54.75A83.36,83.36,0,0,1,352,339.64a1.62,1.62,0,0,0-.51,1.64l6.45,24.45a1.62,1.62,0,0,1-.67,1.77c-2.22,1.46-4.5,2.85-6.82,4.14a1.63,1.63,0,0,1-1.89-.22l-18.67-17a1.62,1.62,0,0,0-1.68-.31,82.3,82.3,0,0,1-23.43,5.48,1.6,1.6,0,0,0-1.37,1l-9.15,23.55a1.63,1.63,0,0,1-1.59,1q-4-.18-8-.66a1.61,1.61,0,0,1-1.39-1.29l-5.08-24.74a1.62,1.62,0,0,0-1.19-1.24,82.72,82.72,0,0,1-22.17-9.33,1.6,1.6,0,0,0-1.71,0L231.92,361.6a1.62,1.62,0,0,1-1.89-.1q-3.12-2.5-6.05-5.22a1.62,1.62,0,0,1-.36-1.86l10.43-23a1.6,1.6,0,0,0-.23-1.7,83.23,83.23,0,0,1-12.47-20.57,1.62,1.62,0,0,0-1.39-1l-25.25-1.42a1.65,1.65,0,0,1-1.48-1.19c-.69-2.55-1.3-5.14-1.81-7.77a1.63,1.63,0,0,1,.8-1.72Z" transform="translate(-101.88 -139.25)"/><circle class="cls-4" cx="195.89" cy="137.68" r="50.29"/><circle class="cls-5" cx="195.89" cy="137.68" r="59.36"/><circle class="cls-6" cx="195.68" cy="124.12" r="10.31"/><path class="cls-6" d="M308.29,284.19V302.7a4.64,4.64,0,0,1-4.64,4.64H291.9a4.66,4.66,0,0,1-4.66-4.65v-18c0-5.92,4.85-11.14,10.78-11a10.52,10.52,0,0,1,10.27,10.51Z" transform="translate(-101.88 -139.25)"/><circle class="cls-6" cx="174.64" cy="117.59" r="10.31"/><path class="cls-6" d="M287.15,276.3a.19.19,0,0,1,0,.08,10.47,10.47,0,0,0-2.29,6.55V300.7l-.12.12H270.86a4.66,4.66,0,0,1-4.66-4.65v-18c0-5.93,4.85-11.13,10.78-11a10.5,10.5,0,0,1,10.17,9.14Z" transform="translate(-101.88 -139.25)"/><circle class="cls-6" cx="216.73" cy="117.59" r="10.31"/><path class="cls-6" d="M329.33,277.67v18.5a4.65,4.65,0,0,1-4.65,4.65H310.29V282.93a10.4,10.4,0,0,0-1.94-6.07.19.19,0,0,1,0-.07,10.52,10.52,0,0,1,21,.88Z" transform="translate(-101.88 -139.25)"/><path class="cls-7" d="M308.29,284.19v20.47a2.68,2.68,0,0,1-2.68,2.68H289.94a2.7,2.7,0,0,1-2.7-2.69v-20c0-5.92,4.85-11.14,10.78-11a10.52,10.52,0,0,1,10.27,10.51Z" transform="translate(-101.88 -139.25)"/></svg>